# xmcd
#
# Track frame offsets: 
#        150
#        8005
#        14140
#        18347
#        25073
#        40649
#        46640
#        54621
#        56415
#        64832
#        77082
#        82942
#        94482
#        108649
#        112518
#        123504
#        136343
#        148475
#        162348
#        178128
#        195475
#        207144
#        213042
#        223861
#        229961
#        237093
#        247219
#        260479
#        266182
#        277314
#        284570
#        291804
#        299981
#        307359
#        316897
#
# Disc length: 4340 seconds
#
# Revision: 0
# Processed by: cddbd v1.5.1PL0 Copyright (c) Steve Scherf et al.
# Submitted via: ExactAudioCopy v0.95a5
#
DISCID=2210f223
DTITLE=Wonder Workshop - Smoky Mountain 101 Hymns Of Faith [CD2]
DYEAR=2003
DGENRE=Bluegrass
TTITLE0=Church in the Wildwood
TTITLE1=What A Friend We Have In Jesus
TTITLE2=Somebody Touched Me
TTITLE3=Jose Over In The Gloryland
TTITLE4=Battle Hymn of the Republic
TTITLE5=Holy, Holy, Holy
TTITLE6=Joyful, Joyful We Adore Thee
TTITLE7=O Workship the King
TTITLE8=Heavenly Sunlight
TTITLE9=Kumbaya
TTITLE10=Fairest Lord Jesus
TTITLE11=For The Beauty of the Earth
TTITLE12=It's Me, O Lord
TTITLE13=Old Time Religion
TTITLE14=Give Me Oil In My Lamp
TTITLE15=Will The circle Be Unbroken
TTITLE16=At The Cross
TTITLE17=America The Beautiful
TTITLE18=Unclouded Day
TTITLE19=Down by The Riverside
TTITLE20=Standing On The Promises
TTITLE21=Only Trust Him
TTITLE22=Morning Has Broken
TTITLE23=Blessed Assurance
TTITLE24=Near To The Heart of God
TTITLE25=Just A Closer Walk With Thee
TTITLE26=O How I Love Jesus
TTITLE27=Jesus Is All The World To Me
TTITLE28=Crown Him With Many Crowns
TTITLE29=In The Sweet By and By
TTITLE30=I Love To Tell The Story
TTITLE31=It Is Well
TTITLE32=Wayfaring Stranger
TTITLE33=Amazing Grace
TTITLE34=Swing Down Sweet Chariot
EXTD=
EXTT0=
EXTT1=
EXTT2=
EXTT3=
EXTT4=
EXTT5=
EXTT6=
EXTT7=
EXTT8=
EXTT9=
EXTT10=
EXTT11=
EXTT12=
EXTT13=
EXTT14=
EXTT15=
EXTT16=
EXTT17=
EXTT18=
EXTT19=
EXTT20=
EXTT21=
EXTT22=
EXTT23=
EXTT24=
EXTT25=
EXTT26=
EXTT27=
EXTT28=
EXTT29=
EXTT30=
EXTT31=
EXTT32=
EXTT33=
EXTT34=
PLAYORDER=
